<?xml version="1.0" encoding="UTF-8"?> <svg xmlns="http://www.w3.org/2000/svg" width="512" height="512" viewBox="0 0 512 512" fill="none"> <path d="M422.196 134.349C420.557 124.058 411.546 116.378 401.152 116.378C401.101 116.378 400.999 116.378 400.948 116.378C336.333 117.043 274.023 140.083 224.512 181.35C222.976 163.226 217.805 145.562 209.255 129.382C197.581 107.315 180.02 88.8832 158.567 76.0832C149.914 70.912 139.111 72.3456 132.352 79.5648C100.199 113.818 82.8932 158.566 83.6612 205.568C84.378 250.829 101.786 293.427 132.813 326.144C129.895 337.306 127.693 348.672 126.208 360.243C125.594 365.005 128.922 369.357 133.735 370.022C134.093 370.074 134.503 370.074 134.861 370.074C139.162 370.074 142.9 366.899 143.463 362.496C145.05 350.464 147.405 338.688 150.58 327.27C150.938 326.502 151.143 325.734 151.245 324.915C182.631 214.886 284.109 135.014 401.255 133.786C401.255 133.786 401.255 133.786 401.306 133.786C403.149 133.786 404.89 135.27 405.197 137.062C411.648 177.766 411.853 219.034 405.812 259.789C405.709 260.096 405.607 260.403 405.556 260.71C393.524 312.371 359.936 356.506 313.293 381.747C272.18 404.07 224.308 409.907 179.405 398.592C194.56 388.608 209.101 377.651 222.976 365.722C259.584 334.234 290.356 297.011 314.42 255.181C316.826 251.034 315.392 245.709 311.194 243.302C307.047 240.896 301.722 242.33 299.316 246.528C264.192 307.2 213.965 357.888 154.266 393.626C154.01 393.728 153.805 393.882 153.549 394.035C134.4 405.453 114.33 415.283 93.4404 423.475C88.986 425.216 86.7332 430.285 88.5252 434.739C89.8564 438.17 93.1332 440.269 96.6148 440.269C97.69 440.269 98.7652 440.064 99.7892 439.654C120.474 431.565 140.34 421.939 159.386 410.829C180.583 417.997 202.599 421.581 224.564 421.581C258.048 421.581 291.38 413.338 321.383 397.005C371.866 369.664 408.423 322.048 421.888 266.291C422.196 265.574 422.452 264.806 422.554 263.987C429.159 220.979 429.005 177.357 422.196 134.349ZM171.06 240.64C170.957 231.322 170.548 222.669 169.831 214.374C168.244 196.659 165.223 178.022 160.615 157.286C159.591 152.576 154.932 149.658 150.221 150.682C145.511 151.706 142.592 156.365 143.616 161.075C148.071 181.043 150.989 198.963 152.474 215.91C153.908 232.141 154.061 250.01 152.884 271.974C147.354 283.136 142.541 294.656 138.548 306.534C86.1188 243.968 87.9108 152.166 144.948 91.4432C146.074 90.2144 148.02 90.0608 149.607 90.9824C186.932 113.203 208.896 153.446 207.514 196.659C193.792 210.125 181.607 224.87 171.06 240.64Z" fill="#FF7A00"></path> </svg> 